<?xml version="1.0" encoding="utf-8"?>
<!-- Generator: Adobe Illustrator 24.3.0, SVG Export Plug-In . SVG Version: 6.00 Build 0)  -->
<svg version="1.1" id="Layer_1" xmlns="http://www.w3.org/2000/svg" xmlns:xlink="http://www.w3.org/1999/xlink" x="0px" y="0px"
	 viewBox="0 0 32 27.5" style="enable-background:new 0 0 32 27.5;" xml:space="preserve">
<g>
	<path d="M23.5,3c1.5,0,2.9,0.6,3.9,1.6c1,1,1.6,2.4,1.6,3.9c0,1.5-0.6,2.9-1.7,3.9L15.9,23.9L4.7,12.6c-2.2-2.2-2.3-5.7-0.2-7.9
		C5.5,3.6,7,3,8.5,3c1.5,0,2.9,0.6,3.9,1.6L13.9,6L16,8.1L18.1,6l1.4-1.4C20.6,3.6,22,3,23.5,3 M23.5,0c-2.2,0-4.4,0.8-6.1,2.5
		L16,3.9l-1.4-1.4C12.9,0.8,10.7,0,8.5,0C6.3,0,4,0.9,2.3,2.7c-3.2,3.4-3,8.8,0.3,12.1l12.4,12.4c0.3,0.3,0.7,0.4,1,0.4
		c0.4,0,0.7-0.1,1-0.4l12.5-12.5c3.4-3.3,3.4-8.8,0.1-12.1l0,0C27.9,0.8,25.6,0,23.5,0L23.5,0z"/>
</g>
</svg>
